# This file uses centimeters as units for non-parametric coordinates.

mtllib enviroment.mtl
g default
v 0.386121 2.223431 -1.239757
v -2.093392 2.223431 -1.239757
v 0.386121 4.702945 -1.239757
v 0.386121 4.702945 1.239757
v 0.386121 2.223431 1.239757
v -2.093392 2.223431 1.239757
v 0.390205 2.223431 1.239757
v 2.869719 2.223431 1.239757
v 0.390205 4.702945 1.239757
v 0.390205 4.702945 -1.239757
v 0.390205 2.223431 -1.239757
v 2.869719 2.223431 -1.239757
v -7.461620 2.221434 7.461620
v -5.969296 2.221434 7.461620
v -4.476973 2.221434 7.461620
v -2.984648 2.221434 7.461620
v -1.492324 2.221434 7.461620
v 0.000000 2.221434 7.461620
v 1.492324 2.221434 7.461620
v 2.984648 2.221434 7.461620
v 4.476973 2.221434 7.461620
v 5.969297 2.221434 7.461620
v 7.461620 2.221434 7.461620
v -7.461620 2.221434 5.969296
v -5.969296 2.221434 5.969296
v -4.476973 2.221434 5.969296
v -2.984648 2.221434 5.969296
v -1.492324 2.221434 5.969296
v 0.000000 2.221434 5.969296
v 1.492324 2.221434 5.969296
v 2.984648 2.221434 5.969296
v 4.476973 2.221434 5.969296
v 5.969297 2.221434 5.969296
v 7.461620 2.221434 5.969296
v -7.461620 2.221434 4.476973
v -5.969296 2.221434 4.476973
v -4.476973 2.221434 4.476973
v -2.984648 2.221434 4.476973
v -1.492324 2.221434 4.476973
v 0.000000 2.221434 4.476973
v 1.492324 2.221434 4.476973
v 2.984648 2.221434 4.476973
v 4.476973 2.221434 4.476973
v 5.969297 2.221434 4.476973
v 7.461620 2.221434 4.476973
v -7.461620 2.221434 2.984648
v -5.969296 2.221434 2.984648
v -4.476973 2.221434 2.984648
v -2.984648 2.221434 2.984648
v -1.492324 2.221434 2.984648
v 0.000000 2.221434 2.984648
v 1.492324 2.221434 2.984648
v 2.984648 2.221434 2.984648
v 4.476973 2.221434 2.984648
v 5.969297 2.221434 2.984648
v 7.461620 2.221434 2.984648
v -7.461620 2.221434 1.492324
v -5.969296 2.221434 1.492324
v -4.476973 2.221434 1.492324
v -2.984648 2.221434 1.492324
v -1.492324 2.221434 1.492324
v 0.000000 2.221434 1.492324
v 1.492324 2.221434 1.492324
v 2.984648 2.221434 1.492324
v 4.476973 2.221434 1.492324
v 5.969297 2.221434 1.492324
v 7.461620 2.221434 1.492324
v -7.461620 2.221434 0.000000
v -5.969296 2.221434 0.000000
v -4.476973 2.221434 0.000000
v -2.984648 2.221434 0.000000
v -1.492324 2.221434 0.000000
v 0.000000 2.221434 0.000000
v 1.492324 2.221434 0.000000
v 2.984648 2.221434 0.000000
v 4.476973 2.221434 0.000000
v 5.969297 2.221434 0.000000
v 7.461620 2.221434 0.000000
v -7.461620 2.221434 -1.492324
v -5.969296 2.221434 -1.492324
v -4.476973 2.221434 -1.492324
v -2.984648 2.221434 -1.492324
v -1.492324 2.221434 -1.492324
v 0.000000 2.221434 -1.492324
v 1.492324 2.221434 -1.492324
v 2.984648 2.221434 -1.492324
v 4.476973 2.221434 -1.492324
v 5.969297 2.221434 -1.492324
v 7.461620 2.221434 -1.492324
v -7.461620 2.221434 -2.984648
v -5.969296 2.221434 -2.984648
v -4.476973 2.221434 -2.984648
v -2.984648 2.221434 -2.984648
v -1.492324 2.221434 -2.984648
v 0.000000 2.221434 -2.984648
v 1.492324 2.221434 -2.984648
v 2.984648 2.221434 -2.984648
v 4.476973 2.221434 -2.984648
v 5.969297 2.221434 -2.984648
v 7.461620 2.221434 -2.984648
v -7.461620 2.221434 -4.476973
v -5.969296 2.221434 -4.476973
v -4.476973 2.221434 -4.476973
v -2.984648 2.221434 -4.476973
v -1.492324 2.221434 -4.476973
v 0.000000 2.221434 -4.476973
v 1.492324 2.221434 -4.476973
v 2.984648 2.221434 -4.476973
v 4.476973 2.221434 -4.476973
v 5.969297 2.221434 -4.476973
v 7.461620 2.221434 -4.476973
v -7.461620 2.221434 -5.969297
v -5.969296 2.221434 -5.969297
v -4.476973 2.221434 -5.969297
v -2.984648 2.221434 -5.969297
v -1.492324 2.221434 -5.969297
v 0.000000 2.221434 -5.969297
v 1.492324 2.221434 -5.969297
v 2.984648 2.221434 -5.969297
v 4.476973 2.221434 -5.969297
v 5.969297 2.221434 -5.969297
v 7.461620 2.221434 -5.969297
v -7.461620 2.221434 -7.461620
v -5.969296 2.221434 -7.461620
v -4.476973 2.221434 -7.461620
v -2.984648 2.221434 -7.461620
v -1.492324 2.221434 -7.461620
v 0.000000 2.221434 -7.461620
v 1.492324 2.221434 -7.461620
v 2.984648 2.221434 -7.461620
v 4.476973 2.221434 -7.461620
v 5.969297 2.221434 -7.461620
v 7.461620 2.221434 -7.461620
v -7.662620 2.269615 -7.100394
v 7.662620 2.269615 -7.100394
v -7.662620 5.061375 -7.100394
v 7.662620 5.061375 -7.100394
v -7.662620 5.061375 -7.403862
v 7.662620 5.061375 -7.403862
v -7.662620 2.269615 -7.403862
v 7.662620 2.269615 -7.403862
v 7.469977 2.269615 7.577023
v 7.469977 2.269615 -7.748217
v 7.469977 5.061375 7.577023
v 7.469977 5.061375 -7.748217
v 7.166510 5.061375 7.577023
v 7.166510 5.061375 -7.748217
v 7.166510 2.269615 7.577023
v 7.166510 2.269615 -7.748217
v -6.762691 2.269615 7.577023
v -6.762691 2.269615 -7.748217
v -6.762691 5.061375 7.577023
v -6.762691 5.061375 -7.748217
v -7.066158 5.061375 7.577023
v -7.066158 5.061375 -7.748217
v -7.066158 2.269615 7.577023
v -7.066158 2.269615 -7.748217
v -7.662620 2.269615 7.464009
v 7.662620 2.269615 7.464009
v -7.662620 5.061375 7.464009
v 7.662620 5.061375 7.464009
v -7.662620 5.061375 7.160541
v 7.662620 5.061375 7.160541
v -7.662620 2.269615 7.160541
v 7.662620 2.269615 7.160541
vt 0.375000 0.000000
vt 0.625000 0.000000
vt 0.375000 0.250000
vt 0.375000 0.500000
vt 0.375000 0.750000
vt 0.625000 0.750000
vt 0.375000 1.000000
vt 0.625000 1.000000
vt 0.125000 0.000000
vt 0.125000 0.250000
vt 0.625000 0.000000
vt 0.375000 0.250000
vt 0.375000 0.000000
vt 0.375000 0.750000
vt 0.625000 0.750000
vt 0.625000 1.000000
vt 0.375000 1.000000
vt 0.125000 0.000000
vt 0.125000 0.250000
vt 0.375000 0.500000
vt 0.000000 0.000000
vt 0.100000 0.000000
vt 0.100000 0.100000
vt 0.000000 0.100000
vt 0.200000 0.000000
vt 0.200000 0.100000
vt 0.300000 0.000000
vt 0.300000 0.100000
vt 0.400000 0.000000
vt 0.400000 0.100000
vt 0.500000 0.000000
vt 0.500000 0.100000
vt 0.600000 0.000000
vt 0.600000 0.100000
vt 0.700000 0.000000
vt 0.700000 0.100000
vt 0.800000 0.000000
vt 0.800000 0.100000
vt 0.900000 0.000000
vt 0.900000 0.100000
vt 1.000000 0.000000
vt 1.000000 0.100000
vt 0.100000 0.200000
vt 0.000000 0.200000
vt 0.200000 0.200000
vt 0.300000 0.200000
vt 0.400000 0.200000
vt 0.500000 0.200000
vt 0.600000 0.200000
vt 0.700000 0.200000
vt 0.800000 0.200000
vt 0.900000 0.200000
vt 1.000000 0.200000
vt 0.100000 0.300000
vt 0.000000 0.300000
vt 0.200000 0.300000
vt 0.300000 0.300000
vt 0.400000 0.300000
vt 0.500000 0.300000
vt 0.600000 0.300000
vt 0.700000 0.300000
vt 0.800000 0.300000
vt 0.900000 0.300000
vt 1.000000 0.300000
vt 0.100000 0.400000
vt 0.000000 0.400000
vt 0.200000 0.400000
vt 0.300000 0.400000
vt 0.400000 0.400000
vt 0.500000 0.400000
vt 0.600000 0.400000
vt 0.700000 0.400000
vt 0.800000 0.400000
vt 0.900000 0.400000
vt 1.000000 0.400000
vt 0.100000 0.500000
vt 0.000000 0.500000
vt 0.200000 0.500000
vt 0.300000 0.500000
vt 0.400000 0.500000
vt 0.500000 0.500000
vt 0.600000 0.500000
vt 0.700000 0.500000
vt 0.800000 0.500000
vt 0.900000 0.500000
vt 1.000000 0.500000
vt 0.100000 0.600000
vt 0.000000 0.600000
vt 0.200000 0.600000
vt 0.300000 0.600000
vt 0.400000 0.600000
vt 0.500000 0.600000
vt 0.600000 0.600000
vt 0.700000 0.600000
vt 0.800000 0.600000
vt 0.900000 0.600000
vt 1.000000 0.600000
vt 0.100000 0.700000
vt 0.000000 0.700000
vt 0.200000 0.700000
vt 0.300000 0.700000
vt 0.400000 0.700000
vt 0.500000 0.700000
vt 0.600000 0.700000
vt 0.700000 0.700000
vt 0.800000 0.700000
vt 0.900000 0.700000
vt 1.000000 0.700000
vt 0.100000 0.800000
vt 0.000000 0.800000
vt 0.200000 0.800000
vt 0.300000 0.800000
vt 0.400000 0.800000
vt 0.500000 0.800000
vt 0.600000 0.800000
vt 0.700000 0.800000
vt 0.800000 0.800000
vt 0.900000 0.800000
vt 1.000000 0.800000
vt 0.100000 0.900000
vt 0.000000 0.900000
vt 0.200000 0.900000
vt 0.300000 0.900000
vt 0.400000 0.900000
vt 0.500000 0.900000
vt 0.600000 0.900000
vt 0.700000 0.900000
vt 0.800000 0.900000
vt 0.900000 0.900000
vt 1.000000 0.900000
vt 0.100000 1.000000
vt 0.000000 1.000000
vt 0.200000 1.000000
vt 0.300000 1.000000
vt 0.400000 1.000000
vt 0.500000 1.000000
vt 0.600000 1.000000
vt 0.700000 1.000000
vt 0.800000 1.000000
vt 0.900000 1.000000
vt 1.000000 1.000000
vt 0.375000 0.000000
vt 0.625000 0.000000
vt 0.625000 0.250000
vt 0.375000 0.250000
vt 0.625000 0.500000
vt 0.375000 0.500000
vt 0.625000 0.750000
vt 0.375000 0.750000
vt 0.625000 1.000000
vt 0.375000 1.000000
vt 0.875000 0.000000
vt 0.875000 0.250000
vt 0.125000 0.000000
vt 0.125000 0.250000
vt 0.375000 0.000000
vt 0.625000 0.000000
vt 0.625000 0.250000
vt 0.375000 0.250000
vt 0.625000 0.500000
vt 0.375000 0.500000
vt 0.625000 0.750000
vt 0.375000 0.750000
vt 0.625000 1.000000
vt 0.375000 1.000000
vt 0.875000 0.000000
vt 0.875000 0.250000
vt 0.125000 0.000000
vt 0.125000 0.250000
vt 0.375000 0.000000
vt 0.625000 0.000000
vt 0.625000 0.250000
vt 0.375000 0.250000
vt 0.625000 0.500000
vt 0.375000 0.500000
vt 0.625000 0.750000
vt 0.375000 0.750000
vt 0.625000 1.000000
vt 0.375000 1.000000
vt 0.875000 0.000000
vt 0.875000 0.250000
vt 0.125000 0.000000
vt 0.125000 0.250000
vt 0.375000 0.000000
vt 0.625000 0.000000
vt 0.625000 0.250000
vt 0.375000 0.250000
vt 0.625000 0.500000
vt 0.375000 0.500000
vt 0.625000 0.750000
vt 0.375000 0.750000
vt 0.625000 1.000000
vt 0.375000 1.000000
vt 0.875000 0.000000
vt 0.875000 0.250000
vt 0.125000 0.000000
vt 0.125000 0.250000
vn 0.000000 0.000000 -1.000000
vn 0.000000 0.000000 -1.000000
vn 0.000000 0.000000 -1.000000
vn 0.000000 -1.000000 0.000000
vn 0.000000 -1.000000 0.000000
vn 0.000000 -1.000000 0.000000
vn 0.000000 -1.000000 0.000000
vn 1.000000 0.000000 0.000000
vn 1.000000 0.000000 0.000000
vn 1.000000 0.000000 0.000000
vn 1.000000 0.000000 0.000000
vn 0.000000 0.000000 1.000000
vn 0.000000 0.000000 1.000000
vn 0.000000 0.000000 1.000000
vn -0.707107 0.707107 0.000000
vn -0.707107 0.707107 0.000000
vn -0.707107 0.707107 0.000000
vn -0.707107 0.707107 0.000000
vn 0.000000 0.000000 1.000000
vn 0.000000 0.000000 1.000000
vn 0.000000 0.000000 1.000000
vn 0.000000 -1.000000 0.000000
vn 0.000000 -1.000000 0.000000
vn 0.000000 -1.000000 0.000000
vn 0.000000 -1.000000 0.000000
vn -1.000000 0.000000 0.000000
vn -1.000000 0.000000 0.000000
vn -1.000000 0.000000 0.000000
vn -1.000000 0.000000 0.000000
vn 0.000000 0.000000 -1.000000
vn 0.000000 0.000000 -1.000000
vn 0.000000 0.000000 -1.000000
vn 0.707107 0.707107 0.000000
vn 0.707107 0.707107 0.000000
vn 0.707107 0.707107 0.000000
vn 0.707107 0.707107 0.000000
vn 0.000000 1.000000 0.000000
vn 0.000000 1.000000 0.000000
vn 0.000000 1.000000 0.000000
vn 0.000000 1.000000 0.000000
vn 0.000000 1.000000 0.000000
vn 0.000000 1.000000 0.000000
vn 0.000000 1.000000 0.000000
vn 0.000000 1.000000 0.000000
vn 0.000000 1.000000 0.000000
vn 0.000000 1.000000 0.000000
vn 0.000000 1.000000 0.000000
vn 0.000000 1.000000 0.000000
vn 0.000000 1.000000 0.000000
vn 0.000000 1.000000 0.000000
vn 0.000000 1.000000 0.000000
vn 0.000000 1.000000 0.000000
vn 0.000000 1.000000 0.000000
vn 0.000000 1.000000 0.000000
vn 0.000000 1.000000 0.000000
vn 0.000000 1.000000 0.000000
vn 0.000000 1.000000 0.000000
vn 0.000000 1.000000 0.000000
vn 0.000000 1.000000 0.000000
vn 0.000000 1.000000 0.000000
vn 0.000000 1.000000 0.000000
vn 0.000000 1.000000 0.000000
vn 0.000000 1.000000 0.000000
vn 0.000000 1.000000 0.000000
vn 0.000000 1.000000 0.000000
vn 0.000000 1.000000 0.000000
vn 0.000000 1.000000 0.000000
vn 0.000000 1.000000 0.000000
vn 0.000000 1.000000 0.000000
vn 0.000000 1.000000 0.000000
vn 0.000000 1.000000 0.000000
vn 0.000000 1.000000 0.000000
vn 0.000000 1.000000 0.000000
vn 0.000000 1.000000 0.000000
vn 0.000000 1.000000 0.000000
vn 0.000000 1.000000 0.000000
vn 0.000000 1.000000 0.000000
vn 0.000000 1.000000 0.000000
vn 0.000000 1.000000 0.000000
vn 0.000000 1.000000 0.000000
vn 0.000000 1.000000 0.000000
vn 0.000000 1.000000 0.000000
vn 0.000000 1.000000 0.000000
vn 0.000000 1.000000 0.000000
vn 0.000000 1.000000 0.000000
vn 0.000000 1.000000 0.000000
vn 0.000000 1.000000 0.000000
vn 0.000000 1.000000 0.000000
vn 0.000000 1.000000 0.000000
vn 0.000000 1.000000 0.000000
vn 0.000000 1.000000 0.000000
vn 0.000000 1.000000 0.000000
vn 0.000000 1.000000 0.000000
vn 0.000000 1.000000 0.000000
vn 0.000000 1.000000 0.000000
vn 0.000000 1.000000 0.000000
vn 0.000000 1.000000 0.000000
vn 0.000000 1.000000 0.000000
vn 0.000000 1.000000 0.000000
vn 0.000000 1.000000 0.000000
vn 0.000000 1.000000 0.000000
vn 0.000000 1.000000 0.000000
vn 0.000000 1.000000 0.000000
vn 0.000000 1.000000 0.000000
vn 0.000000 1.000000 0.000000
vn 0.000000 1.000000 0.000000
vn 0.000000 1.000000 0.000000
vn 0.000000 1.000000 0.000000
vn 0.000000 1.000000 0.000000
vn 0.000000 1.000000 0.000000
vn 0.000000 1.000000 0.000000
vn 0.000000 1.000000 0.000000
vn 0.000000 1.000000 0.000000
vn 0.000000 1.000000 0.000000
vn 0.000000 1.000000 0.000000
vn 0.000000 1.000000 0.000000
vn 0.000000 1.000000 0.000000
vn 0.000000 1.000000 0.000000
vn 0.000000 1.000000 0.000000
vn 0.000000 1.000000 0.000000
vn 0.000000 1.000000 0.000000
vn 0.000000 1.000000 0.000000
vn 0.000000 1.000000 0.000000
vn 0.000000 1.000000 0.000000
vn 0.000000 1.000000 0.000000
vn 0.000000 1.000000 0.000000
vn 0.000000 1.000000 0.000000
vn 0.000000 1.000000 0.000000
vn 0.000000 1.000000 0.000000
vn 0.000000 1.000000 0.000000
vn 0.000000 1.000000 0.000000
vn 0.000000 1.000000 0.000000
vn 0.000000 1.000000 0.000000
vn 0.000000 1.000000 0.000000
vn 0.000000 1.000000 0.000000
vn 0.000000 1.000000 0.000000
vn 0.000000 1.000000 0.000000
vn 0.000000 1.000000 0.000000
vn 0.000000 1.000000 0.000000
vn 0.000000 1.000000 0.000000
vn 0.000000 1.000000 0.000000
vn 0.000000 1.000000 0.000000
vn 0.000000 1.000000 0.000000
vn 0.000000 1.000000 0.000000
vn 0.000000 1.000000 0.000000
vn 0.000000 1.000000 0.000000
vn 0.000000 1.000000 0.000000
vn 0.000000 1.000000 0.000000
vn 0.000000 1.000000 0.000000
vn 0.000000 1.000000 0.000000
vn 0.000000 1.000000 0.000000
vn 0.000000 1.000000 0.000000
vn 0.000000 1.000000 0.000000
vn 0.000000 1.000000 0.000000
vn 0.000000 1.000000 0.000000
vn 0.000000 1.000000 0.000000
vn 0.000000 1.000000 0.000000
vn 0.000000 0.000000 1.000000
vn 0.000000 0.000000 1.000000
vn 0.000000 0.000000 1.000000
vn 0.000000 0.000000 1.000000
vn 0.000000 1.000000 0.000000
vn 0.000000 1.000000 0.000000
vn 0.000000 1.000000 0.000000
vn 0.000000 1.000000 0.000000
vn 0.000000 0.000000 -1.000000
vn 0.000000 0.000000 -1.000000
vn 0.000000 0.000000 -1.000000
vn 0.000000 0.000000 -1.000000
vn 0.000000 -1.000000 0.000000
vn 0.000000 -1.000000 0.000000
vn 0.000000 -1.000000 0.000000
vn 0.000000 -1.000000 0.000000
vn 1.000000 0.000000 0.000000
vn 1.000000 0.000000 0.000000
vn 1.000000 0.000000 0.000000
vn 1.000000 0.000000 0.000000
vn -1.000000 0.000000 0.000000
vn -1.000000 0.000000 0.000000
vn -1.000000 0.000000 0.000000
vn -1.000000 0.000000 0.000000
vn 1.000000 0.000000 0.000000
vn 1.000000 0.000000 0.000000
vn 1.000000 0.000000 0.000000
vn 1.000000 0.000000 0.000000
vn 0.000000 1.000000 0.000000
vn 0.000000 1.000000 0.000000
vn 0.000000 1.000000 0.000000
vn 0.000000 1.000000 0.000000
vn -1.000000 0.000000 0.000000
vn -1.000000 0.000000 0.000000
vn -1.000000 0.000000 0.000000
vn -1.000000 0.000000 0.000000
vn 0.000000 -1.000000 0.000000
vn 0.000000 -1.000000 0.000000
vn 0.000000 -1.000000 0.000000
vn 0.000000 -1.000000 0.000000
vn 0.000000 0.000000 -1.000000
vn 0.000000 0.000000 -1.000000
vn 0.000000 0.000000 -1.000000
vn 0.000000 0.000000 -1.000000
vn 0.000000 0.000000 1.000000
vn 0.000000 0.000000 1.000000
vn 0.000000 0.000000 1.000000
vn 0.000000 0.000000 1.000000
vn 1.000000 0.000000 0.000000
vn 1.000000 0.000000 0.000000
vn 1.000000 0.000000 0.000000
vn 1.000000 0.000000 0.000000
vn 0.000000 1.000000 0.000000
vn 0.000000 1.000000 0.000000
vn 0.000000 1.000000 0.000000
vn 0.000000 1.000000 0.000000
vn -1.000000 0.000000 0.000000
vn -1.000000 0.000000 0.000000
vn -1.000000 0.000000 0.000000
vn -1.000000 0.000000 0.000000
vn 0.000000 -1.000000 0.000000
vn 0.000000 -1.000000 0.000000
vn 0.000000 -1.000000 0.000000
vn 0.000000 -1.000000 0.000000
vn 0.000000 0.000000 -1.000000
vn 0.000000 0.000000 -1.000000
vn 0.000000 0.000000 -1.000000
vn 0.000000 0.000000 -1.000000
vn 0.000000 0.000000 1.000000
vn 0.000000 0.000000 1.000000
vn 0.000000 0.000000 1.000000
vn 0.000000 0.000000 1.000000
vn 0.000000 0.000000 1.000000
vn 0.000000 0.000000 1.000000
vn 0.000000 0.000000 1.000000
vn 0.000000 0.000000 1.000000
vn 0.000000 1.000000 0.000000
vn 0.000000 1.000000 0.000000
vn 0.000000 1.000000 0.000000
vn 0.000000 1.000000 0.000000
vn 0.000000 0.000000 -1.000000
vn 0.000000 0.000000 -1.000000
vn 0.000000 0.000000 -1.000000
vn 0.000000 0.000000 -1.000000
vn 0.000000 -1.000000 0.000000
vn 0.000000 -1.000000 0.000000
vn 0.000000 -1.000000 0.000000
vn 0.000000 -1.000000 0.000000
vn 1.000000 0.000000 0.000000
vn 1.000000 0.000000 0.000000
vn 1.000000 0.000000 0.000000
vn 1.000000 0.000000 0.000000
vn -1.000000 0.000000 0.000000
vn -1.000000 0.000000 0.000000
vn -1.000000 0.000000 0.000000
vn -1.000000 0.000000 0.000000
s off
g pCube8
usemtl initialShadingGroup
f 2/2/1 3/3/2 1/1/3
f 5/5/4 6/6/5 2/8/6 1/7/7
f 5/9/8 1/1/9 3/3/10 4/10/11
f 6/6/12 5/5/13 4/4/14
f 6/6/15 4/4/16 3/3/17 2/2/18
f 8/11/19 9/12/20 7/13/21
f 11/14/22 12/15/23 8/16/24 7/17/25
f 11/18/26 7/13/27 9/12/28 10/19/29
f 12/15/30 11/14/31 10/20/32
f 12/15/33 10/20/34 9/12/35 8/11/36
s 1
f 13/21/37 14/22/38 25/23/39 24/24/40
f 14/22/38 15/25/41 26/26/42 25/23/39
f 15/25/41 16/27/43 27/28/44 26/26/42
f 16/27/43 17/29/45 28/30/46 27/28/44
f 17/29/45 18/31/47 29/32/48 28/30/46
f 18/31/47 19/33/49 30/34/50 29/32/48
f 19/33/49 20/35/51 31/36/52 30/34/50
f 20/35/51 21/37/53 32/38/54 31/36/52
f 21/37/53 22/39/55 33/40/56 32/38/54
f 22/39/55 23/41/57 34/42/58 33/40/56
f 24/24/40 25/23/39 36/43/59 35/44/60
f 25/23/39 26/26/42 37/45/61 36/43/59
f 26/26/42 27/28/44 38/46/62 37/45/61
f 27/28/44 28/30/46 39/47/63 38/46/62
f 28/30/46 29/32/48 40/48/64 39/47/63
f 29/32/48 30/34/50 41/49/65 40/48/64
f 30/34/50 31/36/52 42/50/66 41/49/65
f 31/36/52 32/38/54 43/51/67 42/50/66
f 32/38/54 33/40/56 44/52/68 43/51/67
f 33/40/56 34/42/58 45/53/69 44/52/68
f 35/44/60 36/43/59 47/54/70 46/55/71
f 36/43/59 37/45/61 48/56/72 47/54/70
f 37/45/61 38/46/62 49/57/73 48/56/72
f 38/46/62 39/47/63 50/58/74 49/57/73
f 39/47/63 40/48/64 51/59/75 50/58/74
f 40/48/64 41/49/65 52/60/76 51/59/75
f 41/49/65 42/50/66 53/61/77 52/60/76
f 42/50/66 43/51/67 54/62/78 53/61/77
f 43/51/67 44/52/68 55/63/79 54/62/78
f 44/52/68 45/53/69 56/64/80 55/63/79
f 46/55/71 47/54/70 58/65/81 57/66/82
f 47/54/70 48/56/72 59/67/83 58/65/81
f 48/56/72 49/57/73 60/68/84 59/67/83
f 49/57/73 50/58/74 61/69/85 60/68/84
f 50/58/74 51/59/75 62/70/86 61/69/85
f 51/59/75 52/60/76 63/71/87 62/70/86
f 52/60/76 53/61/77 64/72/88 63/71/87
f 53/61/77 54/62/78 65/73/89 64/72/88
f 54/62/78 55/63/79 66/74/90 65/73/89
f 55/63/79 56/64/80 67/75/91 66/74/90
f 57/66/82 58/65/81 69/76/92 68/77/93
f 58/65/81 59/67/83 70/78/94 69/76/92
f 59/67/83 60/68/84 71/79/95 70/78/94
f 60/68/84 61/69/85 72/80/96 71/79/95
f 61/69/85 62/70/86 73/81/97 72/80/96
f 62/70/86 63/71/87 74/82/98 73/81/97
f 63/71/87 64/72/88 75/83/99 74/82/98
f 64/72/88 65/73/89 76/84/100 75/83/99
f 65/73/89 66/74/90 77/85/101 76/84/100
f 66/74/90 67/75/91 78/86/102 77/85/101
f 68/77/93 69/76/92 80/87/103 79/88/104
f 69/76/92 70/78/94 81/89/105 80/87/103
f 70/78/94 71/79/95 82/90/106 81/89/105
f 71/79/95 72/80/96 83/91/107 82/90/106
f 72/80/96 73/81/97 84/92/108 83/91/107
f 73/81/97 74/82/98 85/93/109 84/92/108
f 74/82/98 75/83/99 86/94/110 85/93/109
f 75/83/99 76/84/100 87/95/111 86/94/110
f 76/84/100 77/85/101 88/96/112 87/95/111
f 77/85/101 78/86/102 89/97/113 88/96/112
f 79/88/104 80/87/103 91/98/114 90/99/115
f 80/87/103 81/89/105 92/100/116 91/98/114
f 81/89/105 82/90/106 93/101/117 92/100/116
f 82/90/106 83/91/107 94/102/118 93/101/117
f 83/91/107 84/92/108 95/103/119 94/102/118
f 84/92/108 85/93/109 96/104/120 95/103/119
f 85/93/109 86/94/110 97/105/121 96/104/120
f 86/94/110 87/95/111 98/106/122 97/105/121
f 87/95/111 88/96/112 99/107/123 98/106/122
f 88/96/112 89/97/113 100/108/124 99/107/123
f 90/99/115 91/98/114 102/109/125 101/110/126
f 91/98/114 92/100/116 103/111/127 102/109/125
f 92/100/116 93/101/117 104/112/128 103/111/127
f 93/101/117 94/102/118 105/113/129 104/112/128
f 94/102/118 95/103/119 106/114/130 105/113/129
f 95/103/119 96/104/120 107/115/131 106/114/130
f 96/104/120 97/105/121 108/116/132 107/115/131
f 97/105/121 98/106/122 109/117/133 108/116/132
f 98/106/122 99/107/123 110/118/134 109/117/133
f 99/107/123 100/108/124 111/119/135 110/118/134
f 101/110/126 102/109/125 113/120/136 112/121/137
f 102/109/125 103/111/127 114/122/138 113/120/136
f 103/111/127 104/112/128 115/123/139 114/122/138
f 104/112/128 105/113/129 116/124/140 115/123/139
f 105/113/129 106/114/130 117/125/141 116/124/140
f 106/114/130 107/115/131 118/126/142 117/125/141
f 107/115/131 108/116/132 119/127/143 118/126/142
f 108/116/132 109/117/133 120/128/144 119/127/143
f 109/117/133 110/118/134 121/129/145 120/128/144
f 110/118/134 111/119/135 122/130/146 121/129/145
f 112/121/137 113/120/136 124/131/147 123/132/148
f 113/120/136 114/122/138 125/133/149 124/131/147
f 114/122/138 115/123/139 126/134/150 125/133/149
f 115/123/139 116/124/140 127/135/151 126/134/150
f 116/124/140 117/125/141 128/136/152 127/135/151
f 117/125/141 118/126/142 129/137/153 128/136/152
f 118/126/142 119/127/143 130/138/154 129/137/153
f 119/127/143 120/128/144 131/139/155 130/138/154
f 120/128/144 121/129/145 132/140/156 131/139/155
f 121/129/145 122/130/146 133/141/157 132/140/156
s off
f 134/142/158 135/143/159 137/144/160 136/145/161
f 136/145/162 137/144/163 139/146/164 138/147/165
f 138/147/166 139/146/167 141/148/168 140/149/169
f 140/149/170 141/148/171 135/150/172 134/151/173
f 135/143/174 141/152/175 139/153/176 137/144/177
f 140/154/178 134/142/179 136/145/180 138/155/181
f 142/156/182 143/157/183 145/158/184 144/159/185
f 144/159/186 145/158/187 147/160/188 146/161/189
f 146/161/190 147/160/191 149/162/192 148/163/193
f 148/163/194 149/162/195 143/164/196 142/165/197
f 143/157/198 149/166/199 147/167/200 145/158/201
f 148/168/202 142/156/203 144/159/204 146/169/205
f 150/170/206 151/171/207 153/172/208 152/173/209
f 152/173/210 153/172/211 155/174/212 154/175/213
f 154/175/214 155/174/215 157/176/216 156/177/217
f 156/177/218 157/176/219 151/178/220 150/179/221
f 151/171/222 157/180/223 155/181/224 153/172/225
f 156/182/226 150/170/227 152/173/228 154/183/229
f 158/184/230 159/185/231 161/186/232 160/187/233
f 160/187/234 161/186/235 163/188/236 162/189/237
f 162/189/238 163/188/239 165/190/240 164/191/241
f 164/191/242 165/190/243 159/192/244 158/193/245
f 159/185/246 165/194/247 163/195/248 161/186/249
f 164/196/250 158/184/251 160/187/252 162/197/253
